<svg xmlns="http://www.w3.org/2000/svg" width="1920" height="1080" viewBox="0 0 1920 1080"><title >Godfather — don-office</title><desc >An original illustration of a mafia don's office at night: venetian-blind light, banker's lamp, whiskey, rose and a city skyline.</desc><defs >
      <linearGradient id="wall" x1="0" y1="0" x2="0" y2="1">
        <stop stop-color="#1E1813"/>
        <stop offset=".55" stop-color="#12100C"/>
        <stop offset="1" stop-color="#080706"/>
      </linearGradient>
      <linearGradient id="night" x1="0" y1="0" x2="0" y2="1">
        <stop stop-color="#0B1220"/>
        <stop offset=".6" stop-color="#16202E"/>
        <stop offset="1" stop-color="#2A2A30"/>
      </linearGradient>
      <radialGradient id="lampglow" cx=".5" cy=".5" r=".5">
        <stop stop-color="#E6C78B" stop-opacity=".55"/>
        <stop offset=".4" stop-color="#C9A86A" stop-opacity=".22"/>
        <stop offset="1" stop-color="#C9A86A" stop-opacity="0"/>
      </radialGradient>
      <linearGradient id="lampshade" x1="0" y1="0" x2="0" y2="1">
        <stop stop-color="#3A5A40"/><stop offset=".5" stop-color="#2A4430"/>
        <stop offset="1" stop-color="#1A2E20"/>
      </linearGradient>
      <linearGradient id="deskwood" x1="0" y1="0" x2="0" y2="1">
        <stop stop-color="#3A2A1E"/><stop offset=".4" stop-color="#2A1E14"/>
        <stop offset="1" stop-color="#171008"/>
      </linearGradient>
      <linearGradient id="whiskey" x1="0" y1="0" x2="0" y2="1">
        <stop stop-color="#D8953B"/><stop offset=".5" stop-color="#A66A25"/>
        <stop offset="1" stop-color="#6B3E14"/>
      </linearGradient>
      <linearGradient id="blindlight" x1="0" y1="0" x2="1" y2="1">
        <stop stop-color="#E8DCC3" stop-opacity=".10"/>
        <stop offset="1" stop-color="#E8DCC3" stop-opacity="0"/>
      </linearGradient>
      <radialGradient id="vignette" r=".75">
        <stop offset=".45" stop-color="#080706" stop-opacity="0"/>
        <stop offset="1" stop-color="#080706" stop-opacity=".78"/>
      </radialGradient>
      <filter id="grain" x="0" y="0" width="100%" height="100%">
        <feTurbulence type="fractalNoise" baseFrequency=".72" numOctaves="3" seed="7" stitchTiles="stitch"/>
        <feColorMatrix type="saturate" values="0"/>
      </filter>
      <clipPath id="window-clip"><rect x="1090" y="120" width="620" height="520"/></clipPath>
    </defs><rect x="0" y="0" width="1920" height="1080" fill="url(#wall)"/><rect x="120" y="130" width="420" height="320" fill="#0A0806" stroke="#8A6E42" stroke-width="6"/><rect x="140" y="150" width="380" height="280" fill="#141210"/><path d="M140 430L300 250 360 320 430 230 520 340V430Z" fill="#1E2A24" opacity="0.8"/><circle cx="460" cy="200" r="22" fill="#C9A86A" opacity="0.5"/><rect x="140" y="150" width="380" height="280" fill="none" stroke="#C9A86A" stroke-width="1" opacity="0.25"/><rect x="1060" y="90" width="680" height="580" fill="#050403" stroke="#3A2E1E" stroke-width="10"/><g clip-path="url(#window-clip)"><rect x="1090" y="120" width="620" height="520" fill="url(#night)"/><circle cx="1590" cy="220" r="34" fill="#E8DCC3" opacity="0.85"/><circle cx="1578" cy="212" r="30" fill="#0B1220" opacity="0.9"/><rect x="1090" y="486.48045373967113" width="97.67850911732589" height="153.51954626032887" fill="#0A0E16"/><rect x="1136.0519357452959" y="565.6668723054755" width="6" height="9" fill="#C9A86A" opacity="0.64"/><rect x="1167.2139012397229" y="574.0399877689002" width="6" height="9" fill="#8A97A8" opacity="0.62"/><rect x="1151.814900186681" y="547.0181111462095" width="6" height="9" fill="#C9A86A" opacity="0.72"/><rect x="1150.9222189281377" y="611.1595270930432" width="6" height="9" fill="#8A97A8" opacity="0.45"/><rect x="1154.8281299625912" y="570.7481538379255" width="6" height="9" fill="#C9A86A" opacity="0.45"/><rect x="1191.1688599517238" y="225.96461619005464" width="85.09911277651739" height="414.03538380994536" fill="#0A0E16"/><rect x="1258.0026474171063" y="272.6592748935026" width="6" height="9" fill="#E6C78B" opacity="0.27"/><rect x="1231.7828551629004" y="578.5439013626205" width="6" height="9" fill="#C9A86A" opacity="0.73"/><rect x="1257.868079426672" y="295.91166086848375" width="6" height="9" fill="#C9A86A" opacity="0.62"/><rect x="1247.8402575482887" y="595.8852626043072" width="6" height="9" fill="#C9A86A" opacity="0.61"/><rect x="1226.6015538734648" y="509.79697619833405" width="6" height="9" fill="#E6C78B" opacity="0.5"/><rect x="1262.4418922982572" y="584.7945037003403" width="6" height="9" fill="#C9A86A" opacity="0.31"/><rect x="1229.9364821422369" y="448.69168308175017" width="6" height="9" fill="#C9A86A" opacity="0.63"/><rect x="1207.9667665485672" y="536.6854573482415" width="6" height="9" fill="#8A97A8" opacity="0.66"/><rect x="1217.2812918984605" y="384.7594074793383" width="6" height="9" fill="#C9A86A" opacity="0.36"/><rect x="1225.1595354458595" y="462.290104709032" width="6" height="9" fill="#8A97A8" opacity="0.27"/><rect x="1202.2657474585467" y="565.2808881917128" width="6" height="9" fill="#E6C78B" opacity="0.25"/><rect x="1197.9702209355962" y="596.2866766259449" width="6" height="9" fill="#C9A86A" opacity="0.34"/><rect x="1214.7769270151148" y="532.9592891154487" width="6" height="9" fill="#E6C78B" opacity="0.8"/><rect x="1217.5375221643974" y="417.0698437247179" width="6" height="9" fill="#E6C78B" opacity="0.66"/><rect x="1247.4142881262776" y="371.20143200410416" width="6" height="9" fill="#E6C78B" opacity="0.76"/><rect x="1234.3012745846418" y="343.200627309495" width="6" height="9" fill="#E6C78B" opacity="0.28"/><rect x="1283.8305163593748" y="377.1261285392067" width="76.58538255617538" height="262.8738714607933" fill="#0A0E16"/><rect x="1331.6673069165056" y="400.7895400838468" width="6" height="9" fill="#E6C78B" opacity="0.27"/><rect x="1347.1857071308123" y="442.7465538060319" width="6" height="9" fill="#E6C78B" opacity="0.55"/><rect x="1326.9062782485703" y="541.6604842438821" width="6" height="9" fill="#8A97A8" opacity="0.41"/><rect x="1299.7590959038616" y="446.6614292727063" width="6" height="9" fill="#C9A86A" opacity="0.61"/><rect x="1290.3664982725331" y="608.3733252683277" width="6" height="9" fill="#C9A86A" opacity="0.39"/><rect x="1348.0522660950187" y="620.4206730891345" width="6" height="9" fill="#E6C78B" opacity="0.55"/><rect x="1313.637534788203" y="523.9741657464383" width="6" height="9" fill="#C9A86A" opacity="0.48"/><rect x="1336.046167962838" y="435.8571096355219" width="6" height="9" fill="#E6C78B" opacity="0.66"/><rect x="1307.6498623216273" y="467.16336048219216" width="6" height="9" fill="#E6C78B" opacity="0.79"/><rect x="1367.9845685601508" y="247.68289551032137" width="94.68910267333379" height="392.3171044896786" fill="#0A0E16"/><rect x="1430.163864453996" y="345.35986424332253" width="6" height="9" fill="#E6C78B" opacity="0.49"/><rect x="1449.7770173127617" y="537.8517614962461" width="6" height="9" fill="#C9A86A" opacity="0.73"/><rect x="1446.9528968715813" y="282.380525075387" width="6" height="9" fill="#C9A86A" opacity="0.8"/><rect x="1396.036776996608" y="522.6285377557119" width="6" height="9" fill="#8A97A8" opacity="0.46"/><rect x="1400.7105709184661" y="576.0666036397702" width="6" height="9" fill="#E6C78B" opacity="0.64"/><rect x="1380.682058689676" y="536.6050458485024" width="6" height="9" fill="#E6C78B" opacity="0.34"/><rect x="1444.877085140954" y="390.3077909996133" width="6" height="9" fill="#C9A86A" opacity="0.52"/><rect x="1383.2693571051577" y="286.12569980297394" width="6" height="9" fill="#E6C78B" opacity="0.75"/><rect x="1411.0191718019296" y="422.16034183747286" width="6" height="9" fill="#C9A86A" opacity="0.77"/><rect x="1384.0242079025975" y="591.304784082902" width="6" height="9" fill="#C9A86A" opacity="0.43"/><rect x="1388.4868527676238" y="505.32010110594206" width="6" height="9" fill="#C9A86A" opacity="0.32"/><rect x="1399.0635393323007" y="307.0191528160855" width="6" height="9" fill="#E6C78B" opacity="0.35"/><rect x="1377.0888210454414" y="329.6347386481658" width="6" height="9" fill="#8A97A8" opacity="0.41"/><rect x="1427.0186521997991" y="289.30249310515467" width="6" height="9" fill="#8A97A8" opacity="0.56"/><rect x="1410.2920447380377" y="359.81530936365067" width="6" height="9" fill="#E6C78B" opacity="0.61"/><rect x="1399.3656895289503" y="532.2705991641858" width="6" height="9" fill="#8A97A8" opacity="0.62"/><rect x="1406.2591606142055" y="476.880537072861" width="6" height="9" fill="#C9A86A" opacity="0.37"/><rect x="1437.9669607116152" y="342.13662517541815" width="6" height="9" fill="#8A97A8" opacity="0.51"/><rect x="1402.7571643415718" y="593.9528067719375" width="6" height="9" fill="#8A97A8" opacity="0.5"/><rect x="1435.536359053941" y="619.0946098759022" width="6" height="9" fill="#8A97A8" opacity="0.35"/><rect x="1390.744269831562" y="582.4433103529744" width="6" height="9" fill="#8A97A8" opacity="0.37"/><rect x="1392.8988320543333" y="574.3643746105497" width="6" height="9" fill="#C9A86A" opacity="0.47"/><rect x="1423.4698809582248" y="454.19360536787974" width="6" height="9" fill="#E6C78B" opacity="0.74"/><rect x="1377.3637762149638" y="349.87001665347873" width="6" height="9" fill="#8A97A8" opacity="0.76"/><rect x="1384.9337359387314" y="452.7165490151558" width="6" height="9" fill="#E6C78B" opacity="0.67"/><rect x="1468.479900796712" y="266.1340176136892" width="86.09193608671355" height="373.8659823863108" fill="#0A0E16"/><rect x="1538.0201102423407" y="596.1548270673803" width="6" height="9" fill="#C9A86A" opacity="0.65"/><rect x="1501.4957472928054" y="542.3629795511742" width="6" height="9" fill="#C9A86A" opacity="0.44"/><rect x="1490.3114776776908" y="588.884702664222" width="6" height="9" fill="#8A97A8" opacity="0.26"/><rect x="1506.6248929494159" y="521.8590215962374" width="6" height="9" fill="#E6C78B" opacity="0.51"/><rect x="1489.6811105554193" y="356.1240744665233" width="6" height="9" fill="#C9A86A" opacity="0.51"/><rect x="1523.8457145373768" y="594.6017465273384" width="6" height="9" fill="#E6C78B" opacity="0.42"/><rect x="1511.6056887803911" y="596.0568921495376" width="6" height="9" fill="#8A97A8" opacity="0.76"/><rect x="1522.0377451201489" y="510.678089944056" width="6" height="9" fill="#C9A86A" opacity="0.26"/><rect x="1506.696904503382" y="573.8886796809263" width="6" height="9" fill="#E6C78B" opacity="0.67"/><rect x="1496.488598125116" y="464.4783562093616" width="6" height="9" fill="#C9A86A" opacity="0.59"/><rect x="1518.9299878102568" y="452.9092168291942" width="6" height="9" fill="#C9A86A" opacity="0.64"/><rect x="1560.308232061554" y="434.03762617052485" width="86.66661406753826" height="205.96237382947518" fill="#0A0E16"/><rect x="1591.9204940320305" y="621.9866609852465" width="6" height="9" fill="#C9A86A" opacity="0.7"/><rect x="1615.2385049493143" y="482.5540587442156" width="6" height="9" fill="#8A97A8" opacity="0.67"/><rect x="1578.072731475313" y="453.2160831310713" width="6" height="9" fill="#C9A86A" opacity="0.61"/><rect x="1605.5074612161688" y="445.4340113309548" width="6" height="9" fill="#E6C78B" opacity="0.73"/><rect x="1572.6681800557644" y="450.8631646348121" width="6" height="9" fill="#E6C78B" opacity="0.57"/><rect x="1594.537173638963" y="550.0501226782235" width="6" height="9" fill="#C9A86A" opacity="0.27"/><rect x="1634.9036377193231" y="562.5117887277852" width="6" height="9" fill="#8A97A8" opacity="0.7"/><rect x="1652.5444305233275" y="479.52380767398677" width="86.6471459907834" height="160.47619232601323" fill="#0A0E16"/><rect x="1701.6755414182855" y="500.77248928884677" width="6" height="9" fill="#8A97A8" opacity="0.51"/><rect x="1675.7805602818235" y="605.5290613162497" width="6" height="9" fill="#C9A86A" opacity="0.65"/><rect x="1715.478579546776" y="541.4806991960145" width="6" height="9" fill="#C9A86A" opacity="0.36"/><rect x="1726.3090144058085" y="529.618798191859" width="6" height="9" fill="#8A97A8" opacity="0.68"/><rect x="1705.4096246353836" y="583.462262237292" width="6" height="9" fill="#8A97A8" opacity="0.35"/><rect x="1665.7351481793346" y="596.9218909441731" width="6" height="9" fill="#C9A86A" opacity="0.79"/><rect x="1718.7564269115308" y="579.3528946089895" width="6" height="9" fill="#C9A86A" opacity="0.77"/><rect x="1661.1424014228996" y="507.05128311514653" width="6" height="9" fill="#8A97A8" opacity="0.36"/><rect x="1090" y="120" width="620" height="520" fill="#C9A86A" opacity="0.04"/></g><rect x="1090" y="120" width="620" height="520" fill="none" stroke="#2A2118" stroke-width="4"/><rect x="1385" y="120" width="14" height="520" fill="#2A2118"/><rect x="1090" y="365" width="620" height="12" fill="#2A2118"/><path d="M1090 120L1710 640M1710 120L1090 640" fill="none" stroke="#E8DCC3" stroke-width="1" opacity="0.05"/><g opacity="0.8"><path d="M0 60L1920 -100L1920 -68L0 92Z" fill="url(#blindlight)"/><path d="M0 128L1920 -32L1920 0L0 160Z" fill="url(#blindlight)"/><path d="M0 196L1920 36L1920 68L0 228Z" fill="url(#blindlight)"/><path d="M0 264L1920 104L1920 136L0 296Z" fill="url(#blindlight)"/><path d="M0 332L1920 172L1920 204L0 364Z" fill="url(#blindlight)"/><path d="M0 400L1920 240L1920 272L0 432Z" fill="url(#blindlight)"/><path d="M0 468L1920 308L1920 340L0 500Z" fill="url(#blindlight)"/><path d="M0 536L1920 376L1920 408L0 568Z" fill="url(#blindlight)"/><path d="M0 604L1920 444L1920 476L0 636Z" fill="url(#blindlight)"/><path d="M0 672L1920 512L1920 544L0 704Z" fill="url(#blindlight)"/><path d="M0 740L1920 580L1920 612L0 772Z" fill="url(#blindlight)"/><path d="M0 808L1920 648L1920 680L0 840Z" fill="url(#blindlight)"/><path d="M0 876L1920 716L1920 748L0 908Z" fill="url(#blindlight)"/><path d="M0 944L1920 784L1920 816L0 976Z" fill="url(#blindlight)"/></g><path d="M0 92L1920 -68" fill="none" stroke="#000000" stroke-width="7" opacity="0.42"/><path d="M0 160L1920 0" fill="none" stroke="#000000" stroke-width="7" opacity="0.42"/><path d="M0 228L1920 68" fill="none" stroke="#000000" stroke-width="7" opacity="0.42"/><path d="M0 296L1920 136" fill="none" stroke="#000000" stroke-width="7" opacity="0.42"/><path d="M0 364L1920 204" fill="none" stroke="#000000" stroke-width="7" opacity="0.42"/><path d="M0 432L1920 272" fill="none" stroke="#000000" stroke-width="7" opacity="0.42"/><path d="M0 500L1920 340" fill="none" stroke="#000000" stroke-width="7" opacity="0.42"/><path d="M0 568L1920 408" fill="none" stroke="#000000" stroke-width="7" opacity="0.42"/><path d="M0 636L1920 476" fill="none" stroke="#000000" stroke-width="7" opacity="0.42"/><path d="M0 704L1920 544" fill="none" stroke="#000000" stroke-width="7" opacity="0.42"/><path d="M0 772L1920 612" fill="none" stroke="#000000" stroke-width="7" opacity="0.42"/><path d="M0 840L1920 680" fill="none" stroke="#000000" stroke-width="7" opacity="0.42"/><path d="M0 908L1920 748" fill="none" stroke="#000000" stroke-width="7" opacity="0.42"/><path d="M0 976L1920 816" fill="none" stroke="#000000" stroke-width="7" opacity="0.42"/><path d="M0 1044L1920 884" fill="none" stroke="#000000" stroke-width="7" opacity="0.42"/><rect x="0" y="760" width="1920" height="320" fill="url(#deskwood)"/><rect x="0" y="760" width="1920" height="10" fill="#C9A86A" opacity="0.35"/><rect x="420" y="790" width="1080" height="150" fill="#1A1410" rx="6"/><rect x="420" y="790" width="1080" height="150" fill="none" stroke="#C9A86A" stroke-width="1" opacity="0.3"/><rect x="420" y="790" width="1080" height="6" fill="#C9A86A" opacity="0.15"/><circle cx="1490" cy="700" r="210" fill="url(#lampglow)"/><rect x="1478" y="620" width="24" height="150" fill="#8A6E42"/><ellipse cx="1490" cy="775" rx="70" ry="10" fill="#0A0806" opacity="0.5"/><path d="M1380 620L1600 620L1570 545 1410 545Z" fill="url(#lampshade)" stroke="#C9A86A" stroke-width="1.5"/><path d="M1410 545L1570 545 1555 528 1425 528Z" fill="#1A2E20" stroke="#C9A86A" stroke-width="1"/><rect x="1440" y="620" width="100" height="8" fill="#E6C78B" opacity="0.85"/><circle cx="1490" cy="632" r="60" fill="url(#lampglow)" opacity="0.5"/><path d="M250 700L270 830L390 830L410 700Z" fill="#FFFFFF" opacity="0.08"/><path d="M258 730L262 822L398 822L402 730Z" fill="url(#whiskey)" opacity="0.92"/><path d="M258 730L402 730 398 745 262 745Z" fill="#E8B85A" opacity="0.5"/><rect x="300" y="700" width="60" height="22" fill="#FFFFFF" opacity="0.06" rx="4"/><path d="M272 740L280 815" fill="none" stroke="#F0D090" stroke-width="3" opacity="0.35"/><ellipse cx="330" cy="835" rx="75" ry="9" fill="#000000" opacity="0.4"/><path d="M545 830L555 700 595 700 605 830Z" fill="#0E0C0A" stroke="#3A2E1E" stroke-width="1.5"/><path d="M575 700L573 620" fill="none" stroke="#2E4028" stroke-width="4"/><path d="M574 660Q540 640 520 645Q545 665 574 660Z" fill="#34492E"/><g transform="translate(575 595) scale(1.15)"><ellipse cx="26.0" cy="-0.5" rx="11" ry="7" fill="#6B1620" stroke="#3A0E14" stroke-width=".8" opacity=".9" transform="rotate(-1.1 26.0 -0.5)"/><ellipse cx="4.4" cy="25.6" rx="11" ry="7" fill="#8B2432" stroke="#3A0E14" stroke-width=".8" opacity=".9" transform="rotate(80.2 4.4 25.6)"/><ellipse cx="-20.7" cy="15.7" rx="11" ry="7" fill="#6B1620" stroke="#3A0E14" stroke-width=".8" opacity=".9" transform="rotate(142.9 -20.7 15.7)"/><ellipse cx="-22.8" cy="-12.6" rx="11" ry="7" fill="#6B1620" stroke="#3A0E14" stroke-width=".8" opacity=".9" transform="rotate(208.9 -22.8 -12.6)"/><ellipse cx="7.8" cy="-24.8" rx="11" ry="7" fill="#6B1620" stroke="#3A0E14" stroke-width=".8" opacity=".9" transform="rotate(287.4 7.8 -24.8)"/><ellipse cx="14.8" cy="8.4" rx="11" ry="7" fill="#7A1E28" stroke="#3A0E14" stroke-width=".8" opacity=".9" transform="rotate(29.6 14.8 8.4)"/><ellipse cx="4.9" cy="16.3" rx="11" ry="7" fill="#7A1E28" stroke="#3A0E14" stroke-width=".8" opacity=".9" transform="rotate(73.1 4.9 16.3)"/><ellipse cx="-7.6" cy="15.2" rx="11" ry="7" fill="#6B1620" stroke="#3A0E14" stroke-width=".8" opacity=".9" transform="rotate(116.4 -7.6 15.2)"/><ellipse cx="-17.0" cy="-0.1" rx="11" ry="7" fill="#6B1620" stroke="#3A0E14" stroke-width=".8" opacity=".9" transform="rotate(180.3 -17.0 -0.1)"/><ellipse cx="-8.6" cy="-14.7" rx="11" ry="7" fill="#8B2432" stroke="#3A0E14" stroke-width=".8" opacity=".9" transform="rotate(239.7 -8.6 -14.7)"/><ellipse cx="4.0" cy="-16.5" rx="11" ry="7" fill="#6B1620" stroke="#3A0E14" stroke-width=".8" opacity=".9" transform="rotate(283.6 4.0 -16.5)"/><ellipse cx="15.4" cy="-7.2" rx="11" ry="7" fill="#6B1620" stroke="#3A0E14" stroke-width=".8" opacity=".9" transform="rotate(334.9 15.4 -7.2)"/><ellipse cx="7.4" cy="5.1" rx="11" ry="7" fill="#6B1620" stroke="#3A0E14" stroke-width=".8" opacity=".9" transform="rotate(34.7 7.4 5.1)"/><ellipse cx="-2.8" cy="8.6" rx="11" ry="7" fill="#7A1E28" stroke="#3A0E14" stroke-width=".8" opacity=".9" transform="rotate(107.8 -2.8 8.6)"/><ellipse cx="-9.0" cy="-0.4" rx="11" ry="7" fill="#7A1E28" stroke="#3A0E14" stroke-width=".8" opacity=".9" transform="rotate(182.7 -9.0 -0.4)"/><ellipse cx="-0.9" cy="-9.0" rx="11" ry="7" fill="#8B2432" stroke="#3A0E14" stroke-width=".8" opacity=".9" transform="rotate(264.1 -0.9 -9.0)"/><ellipse cx="7.8" cy="-4.5" rx="11" ry="7" fill="#6B1620" stroke="#3A0E14" stroke-width=".8" opacity=".9" transform="rotate(329.9 7.8 -4.5)"/><circle cx="0" cy="0" r="5" fill="#3A0E14"/><path d="M0 0Q-24 6 -38 26Q-16 24 0 0Z" fill="#2E4028" stroke="#1A2418" stroke-width=".8"/><path d="M0 0Q24 8 36 28Q14 24 0 0Z" fill="#34492E" stroke="#1A2418" stroke-width=".8"/></g><circle cx="575" cy="595" r="90" fill="url(#lampglow)" opacity="0.25"/><path d="M1180 790q-30 -50 10 -90t-10 -90 30 -80" fill="none" stroke="#B8B0A0" stroke-width="5" opacity="0.1" stroke-linecap="round"/><path d="M1210 795q-40 -55 5 -100t-5 -95 25 -70" fill="none" stroke="#B8B0A0" stroke-width="3" opacity="0.12" stroke-linecap="round"/><path d="M1150 800q-20 -45 15 -80" fill="none" stroke="#B8B0A0" stroke-width="2" opacity="0.14" stroke-linecap="round"/><ellipse cx="1195" cy="800" rx="55" ry="12" fill="#0A0806" stroke="#3A2E1E" stroke-width="1.5"/><rect x="1170" y="778" width="50" height="8" fill="#3A2A1A" rx="4" transform="rotate(-12 1195 782)"/><circle cx="1222" cy="776" r="3" fill="#C96A2B" opacity="0.9"/><rect x="800" y="800" width="220" height="90" fill="#D8CBB0" opacity="0.88" transform="rotate(-4 910 845)"/><rect x="820" y="815" width="180" height="4" fill="#3A2A1A" opacity="0.4" transform="rotate(-4 910 845)"/><rect x="820" y="828" width="150" height="4" fill="#3A2A1A" opacity="0.3" transform="rotate(-4 910 845)"/><rect x="700" y="830" width="130" height="10" fill="#0A0806" rx="5" transform="rotate(18 765 835)"/><polygon points="838.00,822.00 852.00,818.00 854.00,823.00 840.00,827.00" fill="#C9A86A"/><rect x="0" y="0" width="1920" height="1080" fill="url(#vignette)"/><rect x="0" y="0" width="1920" height="1080" fill="#FFFFFF" filter="url(#grain)" opacity="0.04"/></svg>
