<svg xmlns="http://www.w3.org/2000/svg" width="1920" height="1080" viewBox="0 0 1920 1080"><title >Godfather — family-crest</title><desc >An original gold signet-ring crest with a rose and laurel on warm black, a quiet geometric companion wallpaper.</desc><defs >
      <linearGradient id="wall" x1="0" y1="0" x2="0" y2="1">
        <stop stop-color="#1E1813"/>
        <stop offset=".55" stop-color="#12100C"/>
        <stop offset="1" stop-color="#080706"/>
      </linearGradient>
      <linearGradient id="night" x1="0" y1="0" x2="0" y2="1">
        <stop stop-color="#0B1220"/>
        <stop offset=".6" stop-color="#16202E"/>
        <stop offset="1" stop-color="#2A2A30"/>
      </linearGradient>
      <radialGradient id="lampglow" cx=".5" cy=".5" r=".5">
        <stop stop-color="#E6C78B" stop-opacity=".55"/>
        <stop offset=".4" stop-color="#C9A86A" stop-opacity=".22"/>
        <stop offset="1" stop-color="#C9A86A" stop-opacity="0"/>
      </radialGradient>
      <linearGradient id="lampshade" x1="0" y1="0" x2="0" y2="1">
        <stop stop-color="#3A5A40"/><stop offset=".5" stop-color="#2A4430"/>
        <stop offset="1" stop-color="#1A2E20"/>
      </linearGradient>
      <linearGradient id="deskwood" x1="0" y1="0" x2="0" y2="1">
        <stop stop-color="#3A2A1E"/><stop offset=".4" stop-color="#2A1E14"/>
        <stop offset="1" stop-color="#171008"/>
      </linearGradient>
      <linearGradient id="whiskey" x1="0" y1="0" x2="0" y2="1">
        <stop stop-color="#D8953B"/><stop offset=".5" stop-color="#A66A25"/>
        <stop offset="1" stop-color="#6B3E14"/>
      </linearGradient>
      <linearGradient id="blindlight" x1="0" y1="0" x2="1" y2="1">
        <stop stop-color="#E8DCC3" stop-opacity=".10"/>
        <stop offset="1" stop-color="#E8DCC3" stop-opacity="0"/>
      </linearGradient>
      <radialGradient id="vignette" r=".75">
        <stop offset=".45" stop-color="#080706" stop-opacity="0"/>
        <stop offset="1" stop-color="#080706" stop-opacity=".78"/>
      </radialGradient>
      <filter id="grain" x="0" y="0" width="100%" height="100%">
        <feTurbulence type="fractalNoise" baseFrequency=".72" numOctaves="3" seed="7" stitchTiles="stitch"/>
        <feColorMatrix type="saturate" values="0"/>
      </filter>
      <clipPath id="window-clip"><rect x="1090" y="120" width="620" height="520"/></clipPath>
    </defs><rect x="0" y="0" width="1920" height="1080" fill="#12100C"/><defs >
          <radialGradient id="crest-glow" cx=".5" cy=".46" r=".55">
            <stop stop-color="#2A2118"/><stop offset="1" stop-color="#12100C"/>
          </radialGradient>
          <pattern id="damask" width="140" height="140" patternUnits="userSpaceOnUse">
            <path d="M70 10Q85 40 70 70Q55 40 70 10Z" fill="none" stroke="#C9A86A" stroke-width=".7" opacity=".10"/>
            <path d="M70 70Q85 100 70 130Q55 100 70 70Z" fill="none" stroke="#C9A86A" stroke-width=".7" opacity=".08"/>
            <circle cx="0" cy="0" r="2" fill="#C9A86A" opacity=".08"/>
            <circle cx="140" cy="140" r="2" fill="#C9A86A" opacity=".08"/>
          </pattern>
        </defs><rect x="0" y="0" width="1920" height="1080" fill="url(#crest-glow)"/><rect x="0" y="0" width="1920" height="1080" fill="url(#damask)"/><circle cx="960" cy="500" r="330" fill="none" stroke="#C9A86A" stroke-width="1.5" opacity="0.35"/><circle cx="960" cy="500" r="344" fill="none" stroke="#C9A86A" stroke-width="1" opacity="0.18"/><circle cx="960" cy="500" r="380" fill="none" stroke="#C9A86A" stroke-width="1" opacity="0.12"/><circle cx="960" cy="500" r="420" fill="none" stroke="#7A6A4A" stroke-width="1" opacity="0.1"/><path d="M1312.0 500.0L1322.0 500.0" fill="none" stroke="#C9A86A" stroke-width="1" opacity="0.3"/><path d="M1310.1 536.8L1320.0 537.8" fill="none" stroke="#C9A86A" stroke-width="1" opacity="0.3"/><path d="M1304.3 573.2L1314.1 575.3" fill="none" stroke="#C9A86A" stroke-width="1" opacity="0.3"/><path d="M1294.8 608.8L1304.3 611.9" fill="none" stroke="#C9A86A" stroke-width="1" opacity="0.3"/><path d="M1281.6 643.2L1290.7 647.2" fill="none" stroke="#C9A86A" stroke-width="1" opacity="0.3"/><path d="M1264.8 676.0L1273.5 681.0" fill="none" stroke="#C9A86A" stroke-width="1" opacity="0.3"/><path d="M1244.8 706.9L1252.9 712.8" fill="none" stroke="#C9A86A" stroke-width="1" opacity="0.3"/><path d="M1221.6 735.5L1229.0 742.2" fill="none" stroke="#C9A86A" stroke-width="1" opacity="0.3"/><path d="M1195.5 761.6L1202.2 769.0" fill="none" stroke="#C9A86A" stroke-width="1" opacity="0.3"/><path d="M1166.9 784.8L1172.8 792.9" fill="none" stroke="#C9A86A" stroke-width="1" opacity="0.3"/><path d="M1136.0 804.8L1141.0 813.5" fill="none" stroke="#C9A86A" stroke-width="1" opacity="0.3"/><path d="M1103.2 821.6L1107.2 830.7" fill="none" stroke="#C9A86A" stroke-width="1" opacity="0.3"/><path d="M1068.8 834.8L1071.9 844.3" fill="none" stroke="#C9A86A" stroke-width="1" opacity="0.3"/><path d="M1033.2 844.3L1035.3 854.1" fill="none" stroke="#C9A86A" stroke-width="1" opacity="0.3"/><path d="M996.8 850.1L997.8 860.0" fill="none" stroke="#C9A86A" stroke-width="1" opacity="0.3"/><path d="M960.0 852.0L960.0 862.0" fill="none" stroke="#C9A86A" stroke-width="1" opacity="0.3"/><path d="M923.2 850.1L922.2 860.0" fill="none" stroke="#C9A86A" stroke-width="1" opacity="0.3"/><path d="M886.8 844.3L884.7 854.1" fill="none" stroke="#C9A86A" stroke-width="1" opacity="0.3"/><path d="M851.2 834.8L848.1 844.3" fill="none" stroke="#C9A86A" stroke-width="1" opacity="0.3"/><path d="M816.8 821.6L812.8 830.7" fill="none" stroke="#C9A86A" stroke-width="1" opacity="0.3"/><path d="M784.0 804.8L779.0 813.5" fill="none" stroke="#C9A86A" stroke-width="1" opacity="0.3"/><path d="M753.1 784.8L747.2 792.9" fill="none" stroke="#C9A86A" stroke-width="1" opacity="0.3"/><path d="M724.5 761.6L717.8 769.0" fill="none" stroke="#C9A86A" stroke-width="1" opacity="0.3"/><path d="M698.4 735.5L691.0 742.2" fill="none" stroke="#C9A86A" stroke-width="1" opacity="0.3"/><path d="M675.2 706.9L667.1 712.8" fill="none" stroke="#C9A86A" stroke-width="1" opacity="0.3"/><path d="M655.2 676.0L646.5 681.0" fill="none" stroke="#C9A86A" stroke-width="1" opacity="0.3"/><path d="M638.4 643.2L629.3 647.2" fill="none" stroke="#C9A86A" stroke-width="1" opacity="0.3"/><path d="M625.2 608.8L615.7 611.9" fill="none" stroke="#C9A86A" stroke-width="1" opacity="0.3"/><path d="M615.7 573.2L605.9 575.3" fill="none" stroke="#C9A86A" stroke-width="1" opacity="0.3"/><path d="M609.9 536.8L600.0 537.8" fill="none" stroke="#C9A86A" stroke-width="1" opacity="0.3"/><path d="M608.0 500.0L598.0 500.0" fill="none" stroke="#C9A86A" stroke-width="1" opacity="0.3"/><path d="M609.9 463.2L600.0 462.2" fill="none" stroke="#C9A86A" stroke-width="1" opacity="0.3"/><path d="M615.7 426.8L605.9 424.7" fill="none" stroke="#C9A86A" stroke-width="1" opacity="0.3"/><path d="M625.2 391.2L615.7 388.1" fill="none" stroke="#C9A86A" stroke-width="1" opacity="0.3"/><path d="M638.4 356.8L629.3 352.8" fill="none" stroke="#C9A86A" stroke-width="1" opacity="0.3"/><path d="M655.2 324.0L646.5 319.0" fill="none" stroke="#C9A86A" stroke-width="1" opacity="0.3"/><path d="M675.2 293.1L667.1 287.2" fill="none" stroke="#C9A86A" stroke-width="1" opacity="0.3"/><path d="M698.4 264.5L691.0 257.8" fill="none" stroke="#C9A86A" stroke-width="1" opacity="0.3"/><path d="M724.5 238.4L717.8 231.0" fill="none" stroke="#C9A86A" stroke-width="1" opacity="0.3"/><path d="M753.1 215.2L747.2 207.1" fill="none" stroke="#C9A86A" stroke-width="1" opacity="0.3"/><path d="M784.0 195.2L779.0 186.5" fill="none" stroke="#C9A86A" stroke-width="1" opacity="0.3"/><path d="M816.8 178.4L812.8 169.3" fill="none" stroke="#C9A86A" stroke-width="1" opacity="0.3"/><path d="M851.2 165.2L848.1 155.7" fill="none" stroke="#C9A86A" stroke-width="1" opacity="0.3"/><path d="M886.8 155.7L884.7 145.9" fill="none" stroke="#C9A86A" stroke-width="1" opacity="0.3"/><path d="M923.2 149.9L922.2 140.0" fill="none" stroke="#C9A86A" stroke-width="1" opacity="0.3"/><path d="M960.0 148.0L960.0 138.0" fill="none" stroke="#C9A86A" stroke-width="1" opacity="0.3"/><path d="M996.8 149.9L997.8 140.0" fill="none" stroke="#C9A86A" stroke-width="1" opacity="0.3"/><path d="M1033.2 155.7L1035.3 145.9" fill="none" stroke="#C9A86A" stroke-width="1" opacity="0.3"/><path d="M1068.8 165.2L1071.9 155.7" fill="none" stroke="#C9A86A" stroke-width="1" opacity="0.3"/><path d="M1103.2 178.4L1107.2 169.3" fill="none" stroke="#C9A86A" stroke-width="1" opacity="0.3"/><path d="M1136.0 195.2L1141.0 186.5" fill="none" stroke="#C9A86A" stroke-width="1" opacity="0.3"/><path d="M1166.9 215.2L1172.8 207.1" fill="none" stroke="#C9A86A" stroke-width="1" opacity="0.3"/><path d="M1195.5 238.4L1202.2 231.0" fill="none" stroke="#C9A86A" stroke-width="1" opacity="0.3"/><path d="M1221.6 264.5L1229.0 257.8" fill="none" stroke="#C9A86A" stroke-width="1" opacity="0.3"/><path d="M1244.8 293.1L1252.9 287.2" fill="none" stroke="#C9A86A" stroke-width="1" opacity="0.3"/><path d="M1264.8 324.0L1273.5 319.0" fill="none" stroke="#C9A86A" stroke-width="1" opacity="0.3"/><path d="M1281.6 356.8L1290.7 352.8" fill="none" stroke="#C9A86A" stroke-width="1" opacity="0.3"/><path d="M1294.8 391.2L1304.3 388.1" fill="none" stroke="#C9A86A" stroke-width="1" opacity="0.3"/><path d="M1304.3 426.8L1314.1 424.7" fill="none" stroke="#C9A86A" stroke-width="1" opacity="0.3"/><path d="M1310.1 463.2L1320.0 462.2" fill="none" stroke="#C9A86A" stroke-width="1" opacity="0.3"/><g ><path d="M0 0Q-16 -6 -26 -20Q-8 -16 0 0Z" fill="#4A5A3A" stroke="#2A331E" stroke-width="0.8" opacity="0.85" transform="translate(800.6 692.6) rotate(219.6)"/><path d="M0 0Q-16 -6 -26 -20Q-8 -16 0 0Z" fill="#4A5A3A" stroke="#2A331E" stroke-width="0.8" opacity="0.85" transform="translate(762.5 653.2) rotate(232.2)"/><path d="M0 0Q-16 -6 -26 -20Q-8 -16 0 0Z" fill="#4A5A3A" stroke="#2A331E" stroke-width="0.8" opacity="0.85" transform="translate(733.8 606.4) rotate(244.8)"/><path d="M0 0Q-16 -6 -26 -20Q-8 -16 0 0Z" fill="#4A5A3A" stroke="#2A331E" stroke-width="0.8" opacity="0.85" transform="translate(716.0 554.5) rotate(257.4)"/><path d="M0 0Q-16 -6 -26 -20Q-8 -16 0 0Z" fill="#4A5A3A" stroke="#2A331E" stroke-width="0.8" opacity="0.85" transform="translate(710.0 500.0) rotate(270.0)"/><path d="M0 0Q-16 -6 -26 -20Q-8 -16 0 0Z" fill="#4A5A3A" stroke="#2A331E" stroke-width="0.8" opacity="0.85" transform="translate(716.0 445.5) rotate(282.6)"/><path d="M0 0Q-16 -6 -26 -20Q-8 -16 0 0Z" fill="#4A5A3A" stroke="#2A331E" stroke-width="0.8" opacity="0.85" transform="translate(733.8 393.6) rotate(295.2)"/><path d="M0 0Q-16 -6 -26 -20Q-8 -16 0 0Z" fill="#4A5A3A" stroke="#2A331E" stroke-width="0.8" opacity="0.85" transform="translate(762.5 346.8) rotate(307.8)"/><path d="M0 0Q-16 -6 -26 -20Q-8 -16 0 0Z" fill="#4A5A3A" stroke="#2A331E" stroke-width="0.8" opacity="0.85" transform="translate(800.6 307.4) rotate(320.4)"/><path d="M0 0Q-16 -6 -26 -20Q-8 -16 0 0Z" fill="#4A5A3A" stroke="#2A331E" stroke-width="0.8" opacity="0.85" transform="translate(1119.4 692.6) rotate(320.4)"/><path d="M0 0Q-16 -6 -26 -20Q-8 -16 0 0Z" fill="#4A5A3A" stroke="#2A331E" stroke-width="0.8" opacity="0.85" transform="translate(1157.5 653.2) rotate(307.8)"/><path d="M0 0Q-16 -6 -26 -20Q-8 -16 0 0Z" fill="#4A5A3A" stroke="#2A331E" stroke-width="0.8" opacity="0.85" transform="translate(1186.2 606.4) rotate(295.2)"/><path d="M0 0Q-16 -6 -26 -20Q-8 -16 0 0Z" fill="#4A5A3A" stroke="#2A331E" stroke-width="0.8" opacity="0.85" transform="translate(1204.0 554.5) rotate(282.6)"/><path d="M0 0Q-16 -6 -26 -20Q-8 -16 0 0Z" fill="#4A5A3A" stroke="#2A331E" stroke-width="0.8" opacity="0.85" transform="translate(1210.0 500.0) rotate(270.0)"/><path d="M0 0Q-16 -6 -26 -20Q-8 -16 0 0Z" fill="#4A5A3A" stroke="#2A331E" stroke-width="0.8" opacity="0.85" transform="translate(1204.0 445.5) rotate(257.4)"/><path d="M0 0Q-16 -6 -26 -20Q-8 -16 0 0Z" fill="#4A5A3A" stroke="#2A331E" stroke-width="0.8" opacity="0.85" transform="translate(1186.2 393.6) rotate(244.8)"/><path d="M0 0Q-16 -6 -26 -20Q-8 -16 0 0Z" fill="#4A5A3A" stroke="#2A331E" stroke-width="0.8" opacity="0.85" transform="translate(1157.5 346.8) rotate(232.2)"/><path d="M0 0Q-16 -6 -26 -20Q-8 -16 0 0Z" fill="#4A5A3A" stroke="#2A331E" stroke-width="0.8" opacity="0.85" transform="translate(1119.4 307.4) rotate(219.6)"/></g><circle cx="960" cy="500" r="150" fill="#171310" stroke="#C9A86A" stroke-width="3"/><circle cx="960" cy="500" r="138" fill="none" stroke="#C9A86A" stroke-width="1" opacity="0.5"/><circle cx="960" cy="500" r="118" fill="#1E1813" stroke="#8A6E42" stroke-width="1"/><polygon points="960.00,402.00 963.23,407.55 969.51,408.91 965.23,413.70 965.88,420.09 960.00,417.50 954.12,420.09 954.77,413.70 950.49,408.91 956.77,407.55" fill="#C9A86A" opacity="0.9"/><polygon points="878.00,545.00 880.35,548.76 884.66,549.84 881.80,553.24 882.11,557.66 878.00,556.00 873.89,557.66 874.20,553.24 871.34,549.84 875.65,548.76" fill="#8A6E42" opacity="0.7"/><polygon points="1042.00,545.00 1044.35,548.76 1048.66,549.84 1045.80,553.24 1046.11,557.66 1042.00,556.00 1037.89,557.66 1038.20,553.24 1035.34,549.84 1039.65,548.76" fill="#8A6E42" opacity="0.7"/><g transform="translate(960 510) scale(2.6)"><ellipse cx="25.8" cy="3.1" rx="11" ry="7" fill="#8B2432" stroke="#3A0E14" stroke-width=".8" opacity=".9" transform="rotate(6.9 25.8 3.1)"/><ellipse cx="11.0" cy="23.6" rx="11" ry="7" fill="#7A1E28" stroke="#3A0E14" stroke-width=".8" opacity=".9" transform="rotate(65.1 11.0 23.6)"/><ellipse cx="-22.8" cy="12.4" rx="11" ry="7" fill="#7A1E28" stroke="#3A0E14" stroke-width=".8" opacity=".9" transform="rotate(151.4 -22.8 12.4)"/><ellipse cx="-22.2" cy="-13.5" rx="11" ry="7" fill="#6B1620" stroke="#3A0E14" stroke-width=".8" opacity=".9" transform="rotate(211.2 -22.2 -13.5)"/><ellipse cx="12.8" cy="-22.6" rx="11" ry="7" fill="#7A1E28" stroke="#3A0E14" stroke-width=".8" opacity=".9" transform="rotate(299.5 12.8 -22.6)"/><ellipse cx="16.4" cy="4.3" rx="11" ry="7" fill="#6B1620" stroke="#3A0E14" stroke-width=".8" opacity=".9" transform="rotate(14.8 16.4 4.3)"/><ellipse cx="3.5" cy="16.6" rx="11" ry="7" fill="#7A1E28" stroke="#3A0E14" stroke-width=".8" opacity=".9" transform="rotate(78.0 3.5 16.6)"/><ellipse cx="-11.8" cy="12.3" rx="11" ry="7" fill="#7A1E28" stroke="#3A0E14" stroke-width=".8" opacity=".9" transform="rotate(133.8 -11.8 12.3)"/><ellipse cx="-16.9" cy="-1.4" rx="11" ry="7" fill="#8B2432" stroke="#3A0E14" stroke-width=".8" opacity=".9" transform="rotate(184.9 -16.9 -1.4)"/><ellipse cx="-12.8" cy="-11.2" rx="11" ry="7" fill="#7A1E28" stroke="#3A0E14" stroke-width=".8" opacity=".9" transform="rotate(221.1 -12.8 -11.2)"/><ellipse cx="3.0" cy="-16.7" rx="11" ry="7" fill="#8B2432" stroke="#3A0E14" stroke-width=".8" opacity=".9" transform="rotate(280.2 3.0 -16.7)"/><ellipse cx="13.8" cy="-9.9" rx="11" ry="7" fill="#8B2432" stroke="#3A0E14" stroke-width=".8" opacity=".9" transform="rotate(324.2 13.8 -9.9)"/><ellipse cx="7.2" cy="5.4" rx="11" ry="7" fill="#6B1620" stroke="#3A0E14" stroke-width=".8" opacity=".9" transform="rotate(37.1 7.2 5.4)"/><ellipse cx="-5.1" cy="7.4" rx="11" ry="7" fill="#6B1620" stroke="#3A0E14" stroke-width=".8" opacity=".9" transform="rotate(124.2 -5.1 7.4)"/><ellipse cx="-8.9" cy="-1.4" rx="11" ry="7" fill="#7A1E28" stroke="#3A0E14" stroke-width=".8" opacity=".9" transform="rotate(189.1 -8.9 -1.4)"/><ellipse cx="-2.4" cy="-8.7" rx="11" ry="7" fill="#7A1E28" stroke="#3A0E14" stroke-width=".8" opacity=".9" transform="rotate(254.8 -2.4 -8.7)"/><ellipse cx="8.5" cy="-2.8" rx="11" ry="7" fill="#6B1620" stroke="#3A0E14" stroke-width=".8" opacity=".9" transform="rotate(341.8 8.5 -2.8)"/><circle cx="0" cy="0" r="5" fill="#3A0E14"/><path d="M0 0Q-24 6 -38 26Q-16 24 0 0Z" fill="#2E4028" stroke="#1A2418" stroke-width=".8"/><path d="M0 0Q24 8 36 28Q14 24 0 0Z" fill="#34492E" stroke="#1A2418" stroke-width=".8"/></g><path d="M420 880L860 880" fill="none" stroke="#C9A86A" stroke-width="1" opacity="0.35"/><path d="M1060 880L1500 880" fill="none" stroke="#C9A86A" stroke-width="1" opacity="0.35"/><polygon points="960.00,873.00 967.00,880.00 960.00,887.00 953.00,880.00" fill="#C9A86A" opacity="0.6"/><path d="M420 892L860 892" fill="none" stroke="#C9A86A" stroke-width="1" opacity="0.35"/><path d="M1060 892L1500 892" fill="none" stroke="#C9A86A" stroke-width="1" opacity="0.35"/><polygon points="960.00,885.00 967.00,892.00 960.00,899.00 953.00,892.00" fill="#C9A86A" opacity="0.6"/><rect x="0" y="0" width="1920" height="1080" fill="url(#vignette)"/><rect x="0" y="0" width="1920" height="1080" fill="#FFFFFF" filter="url(#grain)" opacity="0.03"/></svg>
